# xmcd
#
# Track frame offsets: 
#        150
#        19445
#        37770
#        57897
#        83287
#        97517
#        111301
#        128477
#        145132
#        160823
#        177148
#        194170
#        208809
#        220671
#        254084
#        269735
#        285006
#
# Disc length: 4014 seconds
#
# Revision: 0
# Processed by: cddbd v1.5.2PL0 Copyright (c) Steve Scherf et al.
# Submitted via: ExactAudioCopy v1.0b3
#
DISCID=ea0fac11
DTITLE=Various Artist - 新宿盛り場これくしょん Disc2
DYEAR=2009
DGENRE=Japan-Pops
TTITLE0=内藤やす子 - 新宿はぐれ鳥
TTITLE1=八代亜紀 - 新宿なみだ町
TTITLE2=ちあきなおみ - 新宿情話
TTITLE3=美空ひばり - 一人旅〜リンゴ追分〜入り
TTITLE4=西川峰子 - ギター流して今晩わ
TTITLE5=緑川アコ - 酔いどれ女の流れ歌
TTITLE6=都はるみ - おんな道
TTITLE7=石川さゆり - ぬかるみの女
TTITLE8=ちあきなおみ - うかれ屋
TTITLE9=ギャランティーク和恵 - 夢でいいから
TTITLE10=小林幸子 - おもいで酒
TTITLE11=和田アキ子 - 二杯目のお酒
TTITLE12=新沼謙治 - ワインカラーのときめき
TTITLE13=内藤やす子 - 手のひらの中の地図
TTITLE14=ちあきなおみ - 夜間飛行
TTITLE15=内山田洋とクール・ファイブ - 夢酒場
TTITLE16=ちあきなおみ - そっとおやすみ
EXTD=
EXTT0=
EXTT1=
EXTT2=
EXTT3=
EXTT4=
EXTT5=
EXTT6=
EXTT7=
EXTT8=
EXTT9=
EXTT10=
EXTT11=
EXTT12=
EXTT13=
EXTT14=
EXTT15=
EXTT16=
PLAYORDER=
